{
    "asset" : {
        "generator" : "Khronos glTF Blender I/O v3.4.50",
        "version" : "2.0"
    },
    "scene" : 0,
    "scenes" : [
        {
            "name" : "Scene",
            "nodes" : [
                0,
                1
            ]
        }
    ],
    "nodes" : [
        {
            "mesh" : 0,
            "name" : "Curve.004"
        },
        {
            "mesh" : 1,
            "name" : "Plane",
            "scale" : [
                0.20856520533561707,
                0.20856520533561707,
                0.20856520533561707
            ],
            "translation" : [
                0.014590957202017307,
                0,
                -0.03210010752081871
            ]
        }
    ],
    "materials" : [
        {
            "doubleSided" : true,
            "name" : "Material.001",
            "pbrMetallicRoughness" : {
                "baseColorFactor" : [
                    0.00030323988175950944,
                    0.09305880218744278,
                    0.3419143557548523,
                    1
                ],
                "metallicFactor" : 0,
                "roughnessFactor" : 0.5
            }
        },
        {
            "doubleSided" : true,
            "name" : "Blue",
            "pbrMetallicRoughness" : {
                "baseColorFactor" : [
                    0.06124504283070564,
                    0.5520108938217163,
                    0.9646861553192139,
                    1
                ],
                "metallicFactor" : 0,
                "roughnessFactor" : 0.5
            }
        },
        {
            "doubleSided" : true,
            "name" : "SVGMat",
            "pbrMetallicRoughness" : {
                "baseColorFactor" : [
                    0.06124504283070564,
                    0.5520108938217163,
                    0.9646861553192139,
                    1
                ],
                "metallicFactor" : 0,
                "roughnessFactor" : 0.4000000059604645
            }
        },
        {
            "doubleSided" : true,
            "name" : "Material",
            "pbrMetallicRoughness" : {
                "metallicFactor" : 0,
                "roughnessFactor" : 0.5
            }
        },
        {
            "doubleSided" : true,
            "name" : "Material.003",
            "pbrMetallicRoughness" : {
                "baseColorFactor" : [
                    0.4825659692287445,
                    0.9150065779685974,
                    1,
                    1
                ],
                "metallicFactor" : 0,
                "roughnessFactor" : 0.5
            }
        }
    ],
    "meshes" : [
        {
            "name" : "Curve.004",
            "primitives" : [
                {
                    "attributes" : {
                        "POSITION" : 0,
                        "TEXCOORD_0" : 1,
                        "NORMAL" : 2
                    },
                    "indices" : 3,
                    "material" : 0
                },
                {
                    "attributes" : {
                        "POSITION" : 4,
                        "TEXCOORD_0" : 5,
                        "NORMAL" : 6
                    },
                    "indices" : 7,
                    "material" : 1
                },
                {
                    "attributes" : {
                        "POSITION" : 8,
                        "TEXCOORD_0" : 9,
                        "NORMAL" : 10
                    },
                    "indices" : 11,
                    "material" : 2
                }
            ]
        },
        {
            "name" : "Plane",
            "primitives" : [
                {
                    "attributes" : {
                        "POSITION" : 12,
                        "TEXCOORD_0" : 13,
                        "NORMAL" : 14
                    },
                    "indices" : 15,
                    "material" : 3
                },
                {
                    "attributes" : {
                        "POSITION" : 16,
                        "TEXCOORD_0" : 17,
                        "NORMAL" : 18
                    },
                    "indices" : 19,
                    "material" : 4
                }
            ]
        }
    ],
    "accessors" : [
        {
            "bufferView" : 0,
            "componentType" : 5126,
            "count" : 7768,
            "max" : [
                0.10256829857826233,
                0.007500033359974623,
                0.09852144867181778
            ],
            "min" : [
                -0.018872521817684174,
                -0.007499967236071825,
                0.02057945728302002
            ],
            "type" : "VEC3"
        },
        {
            "bufferView" : 1,
            "componentType" : 5126,
            "count" : 7768,
            "type" : "VEC2"
        },
        {
            "bufferView" : 2,
            "componentType" : 5126,
            "count" : 7768,
            "type" : "VEC3"
        },
        {
            "bufferView" : 3,
            "componentType" : 5123,
            "count" : 11652,
            "type" : "SCALAR"
        },
        {
            "bufferView" : 4,
            "componentType" : 5126,
            "count" : 4724,
            "max" : [
                0.10256722569465637,
                0.007500033359974623,
                -0.0032620951533317566
            ],
            "min" : [
                -0.13000841438770294,
                -0.007499967236071825,
                -0.19190454483032227
            ],
            "type" : "VEC3"
        },
        {
            "bufferView" : 5,
            "componentType" : 5126,
            "count" : 4724,
            "type" : "VEC2"
        },
        {
            "bufferView" : 6,
            "componentType" : 5126,
            "count" : 4724,
            "type" : "VEC3"
        },
        {
            "bufferView" : 7,
            "componentType" : 5123,
            "count" : 7092,
            "type" : "SCALAR"
        },
        {
            "bufferView" : 8,
            "componentType" : 5126,
            "count" : 13874,
            "max" : [
                0.10256722569465637,
                0.007500033359974623,
                0.06375713646411896
            ],
            "min" : [
                -0.0643145814538002,
                -0.007499967236071825,
                -0.058529287576675415
            ],
            "type" : "VEC3"
        },
        {
            "bufferView" : 9,
            "componentType" : 5126,
            "count" : 13874,
            "type" : "VEC2"
        },
        {
            "bufferView" : 10,
            "componentType" : 5126,
            "count" : 13874,
            "type" : "VEC3"
        },
        {
            "bufferView" : 11,
            "componentType" : 5123,
            "count" : 21276,
            "type" : "SCALAR"
        },
        {
            "bufferView" : 12,
            "componentType" : 5126,
            "count" : 812,
            "max" : [
                1,
                -0.02570178732275963,
                1
            ],
            "min" : [
                -1,
                -0.1372387558221817,
                -1
            ],
            "type" : "VEC3"
        },
        {
            "bufferView" : 13,
            "componentType" : 5126,
            "count" : 812,
            "type" : "VEC2"
        },
        {
            "bufferView" : 14,
            "componentType" : 5126,
            "count" : 812,
            "type" : "VEC3"
        },
        {
            "bufferView" : 15,
            "componentType" : 5123,
            "count" : 1338,
            "type" : "SCALAR"
        },
        {
            "bufferView" : 16,
            "componentType" : 5126,
            "count" : 64,
            "max" : [
                0.9503936171531677,
                -0.03912829980254173,
                0.9503936171531677
            ],
            "min" : [
                -0.9503936171531677,
                -0.03912829980254173,
                -0.9503936171531677
            ],
            "type" : "VEC3"
        },
        {
            "bufferView" : 17,
            "componentType" : 5126,
            "count" : 64,
            "type" : "VEC2"
        },
        {
            "bufferView" : 18,
            "componentType" : 5126,
            "count" : 64,
            "type" : "VEC3"
        },
        {
            "bufferView" : 19,
            "componentType" : 5123,
            "count" : 186,
            "type" : "SCALAR"
        }
    ],
    "bufferViews" : [
        {
            "buffer" : 0,
            "byteLength" : 93216,
            "byteOffset" : 0,
            "target" : 34962
        },
        {
            "buffer" : 0,
            "byteLength" : 62144,
            "byteOffset" : 93216,
            "target" : 34962
        },
        {
            "buffer" : 0,
            "byteLength" : 93216,
            "byteOffset" : 155360,
            "target" : 34962
        },
        {
            "buffer" : 0,
            "byteLength" : 23304,
            "byteOffset" : 248576,
            "target" : 34963
        },
        {
            "buffer" : 0,
            "byteLength" : 56688,
            "byteOffset" : 271880,
            "target" : 34962
        },
        {
            "buffer" : 0,
            "byteLength" : 37792,
            "byteOffset" : 328568,
            "target" : 34962
        },
        {
            "buffer" : 0,
            "byteLength" : 56688,
            "byteOffset" : 366360,
            "target" : 34962
        },
        {
            "buffer" : 0,
            "byteLength" : 14184,
            "byteOffset" : 423048,
            "target" : 34963
        },
        {
            "buffer" : 0,
            "byteLength" : 166488,
            "byteOffset" : 437232,
            "target" : 34962
        },
        {
            "buffer" : 0,
            "byteLength" : 110992,
            "byteOffset" : 603720,
            "target" : 34962
        },
        {
            "buffer" : 0,
            "byteLength" : 166488,
            "byteOffset" : 714712,
            "target" : 34962
        },
        {
            "buffer" : 0,
            "byteLength" : 42552,
            "byteOffset" : 881200,
            "target" : 34963
        },
        {
            "buffer" : 0,
            "byteLength" : 9744,
            "byteOffset" : 923752,
            "target" : 34962
        },
        {
            "buffer" : 0,
            "byteLength" : 6496,
            "byteOffset" : 933496,
            "target" : 34962
        },
        {
            "buffer" : 0,
            "byteLength" : 9744,
            "byteOffset" : 939992,
            "target" : 34962
        },
        {
            "buffer" : 0,
            "byteLength" : 2676,
            "byteOffset" : 949736,
            "target" : 34963
        },
        {
            "buffer" : 0,
            "byteLength" : 768,
            "byteOffset" : 952412,
            "target" : 34962
        },
        {
            "buffer" : 0,
            "byteLength" : 512,
            "byteOffset" : 953180,
            "target" : 34962
        },
        {
            "buffer" : 0,
            "byteLength" : 768,
            "byteOffset" : 953692,
            "target" : 34962
        },
        {
            "buffer" : 0,
            "byteLength" : 372,
            "byteOffset" : 954460,
            "target" : 34963
        }
    ],
    "buffers" : [
        {
            "byteLength" : 954832,
            "uri" : "data:application/octet-stream;base64,"
        }
    ]
}
