{
    "asset" : {
        "generator" : "Khronos glTF Blender I/O v1.8.19",
        "version" : "2.0"
    },
    "scene" : 0,
    "scenes" : [
        {
            "name" : "Scene",
            "nodes" : [
                0,
                1,
                2,
                3
            ]
        }
    ],
    "nodes" : [
        {
            "mesh" : 0,
            "name" : "Motherboard",
            "rotation" : [
                0.11327797919511795,
                0.03945634886622429,
                -0.12913668155670166,
                0.9843449592590332
            ],
            "translation" : [
                -0.0695633590221405,
                -0.46133488416671753,
                1.1415972709655762
            ]
        },
        {
            "mesh" : 1,
            "name" : "Display",
            "rotation" : [
                -0.005866998806595802,
                0.05469318479299545,
                -0.12345745414495468,
                0.9908241629600525
            ],
            "scale" : [
                0.9725970029830933,
                0.7871305346488953,
                0.7871305346488953
            ],
            "translation" : [
                0.13425660133361816,
                0.971012532711029,
                -0.19223913550376892
            ]
        },
        {
            "mesh" : 2,
            "name" : "Cube.015",
            "rotation" : [
                0.11327797919511795,
                0.03945634886622429,
                -0.12913668155670166,
                0.9843449592590332
            ],
            "scale" : [
                0.08142346888780594,
                0.044402752071619034,
                0.08025672286748886
            ],
            "translation" : [
                -0.06370329856872559,
                -0.29947733879089355,
                0.6250147819519043
            ]
        },
        {
            "mesh" : 3,
            "name" : "Cube.065",
            "rotation" : [
                0.11327797919511795,
                0.03945634886622429,
                -0.12913668155670166,
                0.9843449592590332
            ],
            "scale" : [
                0.08142346888780594,
                0.044402752071619034,
                0.08025672286748886
            ],
            "translation" : [
                -1.2836029529571533,
                0.11738646030426025,
                0.2903542220592499
            ]
        }
    ],
    "materials" : [
        {
            "doubleSided" : true,
            "name" : "Material.001",
            "pbrMetallicRoughness" : {
                "metallicFactor" : 0,
                "roughnessFactor" : 0.5
            }
        },
        {
            "doubleSided" : true,
            "emissiveFactor" : [
                0.9999997615814209,
                0.9999997615814209,
                0.9999997615814209
            ],
            "emissiveTexture" : {
                "index" : 0
            },
            "name" : "Material.002",
            "pbrMetallicRoughness" : {}
        }
    ],
    "meshes" : [
        {
            "name" : "Cube",
            "primitives" : [
                {
                    "attributes" : {
                        "POSITION" : 0,
                        "NORMAL" : 1,
                        "TEXCOORD_0" : 2
                    },
                    "indices" : 3,
                    "material" : 0
                }
            ]
        },
        {
            "name" : "Cube.001",
            "primitives" : [
                {
                    "attributes" : {
                        "POSITION" : 4,
                        "NORMAL" : 5,
                        "TEXCOORD_0" : 6
                    },
                    "indices" : 7,
                    "material" : 0
                },
                {
                    "attributes" : {
                        "POSITION" : 8,
                        "NORMAL" : 9,
                        "TEXCOORD_0" : 10
                    },
                    "indices" : 11,
                    "material" : 1
                }
            ]
        },
        {
            "name" : "Cube.017",
            "primitives" : [
                {
                    "attributes" : {
                        "POSITION" : 12,
                        "NORMAL" : 13,
                        "TEXCOORD_0" : 14
                    },
                    "indices" : 15,
                    "material" : 0
                }
            ]
        },
        {
            "name" : "Cube.069",
            "primitives" : [
                {
                    "attributes" : {
                        "POSITION" : 16,
                        "NORMAL" : 17,
                        "TEXCOORD_0" : 18
                    },
                    "indices" : 19,
                    "material" : 0
                }
            ]
        }
    ],
    "textures" : [
        {
            "sampler" : 0,
            "source" : 0
        }
    ],
    "images" : [
        {
            "mimeType" : "image/png",
            "name" : "Screenshot from 2022-07-08 13-51-25",
            "uri" : "Screenshot%20from%202022-07-08%2013-51-25.png"
        }
    ],
    "accessors" : [
        {
            "bufferView" : 0,
            "componentType" : 5126,
            "count" : 1906,
            "max" : [
                1.6887328624725342,
                0.047007568180561066,
                1.0088393688201904
            ],
            "min" : [
                -1.695427656173706,
                -0.05853446573019028,
                -1.3291295766830444
            ],
            "type" : "VEC3"
        },
        {
            "bufferView" : 1,
            "componentType" : 5126,
            "count" : 1906,
            "type" : "VEC3"
        },
        {
            "bufferView" : 2,
            "componentType" : 5126,
            "count" : 1906,
            "type" : "VEC2"
        },
        {
            "bufferView" : 3,
            "componentType" : 5123,
            "count" : 3180,
            "type" : "SCALAR"
        },
        {
            "bufferView" : 4,
            "componentType" : 5126,
            "count" : 756,
            "max" : [
                1.7289915084838867,
                1.4566073417663574,
                0.022354183718562126
            ],
            "min" : [
                -1.7289915084838867,
                -1.4566476345062256,
                -0.048091743141412735
            ],
            "type" : "VEC3"
        },
        {
            "bufferView" : 5,
            "componentType" : 5126,
            "count" : 756,
            "type" : "VEC3"
        },
        {
            "bufferView" : 6,
            "componentType" : 5126,
            "count" : 756,
            "type" : "VEC2"
        },
        {
            "bufferView" : 7,
            "componentType" : 5123,
            "count" : 1086,
            "type" : "SCALAR"
        },
        {
            "bufferView" : 8,
            "componentType" : 5126,
            "count" : 44,
            "max" : [
                1.681465983390808,
                1.3280574083328247,
                0.006185160018503666
            ],
            "min" : [
                -1.681465983390808,
                -1.3280977010726929,
                0.006108889356255531
            ],
            "type" : "VEC3"
        },
        {
            "bufferView" : 9,
            "componentType" : 5126,
            "count" : 44,
            "type" : "VEC3"
        },
        {
            "bufferView" : 10,
            "componentType" : 5126,
            "count" : 44,
            "type" : "VEC2"
        },
        {
            "bufferView" : 11,
            "componentType" : 5123,
            "count" : 126,
            "type" : "SCALAR"
        },
        {
            "bufferView" : 12,
            "componentType" : 5126,
            "count" : 16896,
            "max" : [
                15.742668151855469,
                0.21753151714801788,
                5.647726535797119
            ],
            "min" : [
                -16.26190757751465,
                -0.2175312638282776,
                -5.124774932861328
            ],
            "type" : "VEC3"
        },
        {
            "bufferView" : 13,
            "componentType" : 5126,
            "count" : 16896,
            "type" : "VEC3"
        },
        {
            "bufferView" : 14,
            "componentType" : 5126,
            "count" : 16896,
            "type" : "VEC2"
        },
        {
            "bufferView" : 15,
            "componentType" : 5123,
            "count" : 33024,
            "type" : "SCALAR"
        },
        {
            "bufferView" : 16,
            "componentType" : 5126,
            "count" : 264,
            "max" : [
                1,
                0.2175312638282776,
                0.6691094636917114
            ],
            "min" : [
                -1,
                -0.2175312638282776,
                -0.669109582901001
            ],
            "type" : "VEC3"
        },
        {
            "bufferView" : 17,
            "componentType" : 5126,
            "count" : 264,
            "type" : "VEC3"
        },
        {
            "bufferView" : 18,
            "componentType" : 5126,
            "count" : 264,
            "type" : "VEC2"
        },
        {
            "bufferView" : 19,
            "componentType" : 5123,
            "count" : 516,
            "type" : "SCALAR"
        }
    ],
    "bufferViews" : [
        {
            "buffer" : 0,
            "byteLength" : 22872,
            "byteOffset" : 0
        },
        {
            "buffer" : 0,
            "byteLength" : 22872,
            "byteOffset" : 22872
        },
        {
            "buffer" : 0,
            "byteLength" : 15248,
            "byteOffset" : 45744
        },
        {
            "buffer" : 0,
            "byteLength" : 6360,
            "byteOffset" : 60992
        },
        {
            "buffer" : 0,
            "byteLength" : 9072,
            "byteOffset" : 67352
        },
        {
            "buffer" : 0,
            "byteLength" : 9072,
            "byteOffset" : 76424
        },
        {
            "buffer" : 0,
            "byteLength" : 6048,
            "byteOffset" : 85496
        },
        {
            "buffer" : 0,
            "byteLength" : 2172,
            "byteOffset" : 91544
        },
        {
            "buffer" : 0,
            "byteLength" : 528,
            "byteOffset" : 93716
        },
        {
            "buffer" : 0,
            "byteLength" : 528,
            "byteOffset" : 94244
        },
        {
            "buffer" : 0,
            "byteLength" : 352,
            "byteOffset" : 94772
        },
        {
            "buffer" : 0,
            "byteLength" : 252,
            "byteOffset" : 95124
        },
        {
            "buffer" : 0,
            "byteLength" : 202752,
            "byteOffset" : 95376
        },
        {
            "buffer" : 0,
            "byteLength" : 202752,
            "byteOffset" : 298128
        },
        {
            "buffer" : 0,
            "byteLength" : 135168,
            "byteOffset" : 500880
        },
        {
            "buffer" : 0,
            "byteLength" : 66048,
            "byteOffset" : 636048
        },
        {
            "buffer" : 0,
            "byteLength" : 3168,
            "byteOffset" : 702096
        },
        {
            "buffer" : 0,
            "byteLength" : 3168,
            "byteOffset" : 705264
        },
        {
            "buffer" : 0,
            "byteLength" : 2112,
            "byteOffset" : 708432
        },
        {
            "buffer" : 0,
            "byteLength" : 1032,
            "byteOffset" : 710544
        }
    ],
    "samplers" : [
        {
            "magFilter" : 9729,
            "minFilter" : 9987,
            "wrapS" : 33071,
            "wrapT" : 33071
        }
    ],
    "buffers" : [
        {
            "byteLength" : 711576,
            "uri" : "macbook.bin"
        }
    ]
}
